# xmcd
# 
# Track frame offsets:
#     150
#     20816
#     40006
#     66444
# 
# Disc length: 1158
# 
# Revision: 6
# Processed by: cddbd v1.5.2PL0 Copyright (c) Steve Scherf et al.
# Submitted via: BonkEnc v1.0.8
# 
DISCID=32048404
DTITLE=Gackt - Journey through the Decade
DYEAR=2009
DGENRE=Rock
TTITLE0=Journey through the Decade
TTITLE1=J.t.D. Re-Mix RIDE "Distort"
TTITLE2=J.t.D. Re-Mix RIDE "Symphony"
TTITLE3=Journey through the Decade (instrumental)
EXTD=
EXTT0=１
EXTT1=
EXTT2=
EXTT3=
PLAYORDER=
